# xmcd
#
# Track frame offsets: 
#        150
#        9791
#        32745
#        42468
#        57015
#        79089
#        99163
#        114376
#        125575
#        140266
#        163840
#        178351
#        196912
#        209919
#        219096
#
# Disc length: 3204 seconds
#
# Revision: 0
# Processed by: cddbd v1.5.2PL0 Copyright (c) Steve Scherf et al.
# Submitted via: ExactAudioCopy v0.99pb4
#
DISCID=cc0c820f
DTITLE=Flying J Wranglers - Live...at the Ranch!
DYEAR=1900
DGENRE=Western
TTITLE0=Ride Cowboy Ride
TTITLE1=Medley
TTITLE2=Texas Plains
TTITLE3=Yodeling Farmers Song
TTITLE4=Song For New Mexico
TTITLE5=El Rancho Grande
TTITLE6=On the Wings of a Snow White Dove
TTITLE7=Cowboy Sweetheart
TTITLE8=Where the West Begins
TTITLE9=Blue Shadows On the Trail
TTITLE10=Billy the Kid
TTITLE11=Tumbleweed
TTITLE12=Glendale Train
TTITLE13=Yodel Your Troubles Away
TTITLE14=Master's Call
EXTD=
EXTT0=
EXTT1=
EXTT2=
EXTT3=
EXTT4=
EXTT5=
EXTT6=
EXTT7=
EXTT8=
EXTT9=
EXTT10=
EXTT11=
EXTT12=
EXTT13=
EXTT14=
PLAYORDER=
